# xmcd
# 
# Track frame offsets:
#     183
#     17085
#     35498
# 
# Disc length: 803
# 
# Revision: 0
# Processed by: cddbd v1.5.2PL0 Copyright (c) Steve Scherf et al.
# Submitted via: fre:ac v1.0.17
# 
DISCID=1b032103
DTITLE=The House of Love - Never CD-Single
DYEAR=1989
DGENRE=
TTITLE0=Never
TTITLE1=Soft as Fire
TTITLE2=Safe
EXTD=
EXTT0=
EXTT1=
EXTT2=
PLAYORDER=
